<?xml version="1.0" encoding="UTF-8"?>
<svg width="338px" height="344px" viewBox="0 0 338 344" version="1.1" xmlns="http://www.w3.org/2000/svg" xmlns:xlink="http://www.w3.org/1999/xlink">
    <!-- Generator: Sketch 51.3 (57544) - http://www.bohemiancoding.com/sketch -->
    <title>logo copy 8</title>
    <desc>Created with Sketch.</desc>
    <defs></defs>
    <g id="logo-copy-8" stroke="none" stroke-width="1" fill="none" fill-rule="evenodd">
        <g id="eg_light" transform="translate(169.000000, 172.000000) rotate(-270.000000) translate(-169.000000, -172.000000) translate(13.000000, 27.000000)" stroke="#979797" stroke-width="36">
            <path d="M154.416511,-1.12486253e-06 C153.856618,0.000538652445 153.437128,0.00134831841 153.15804,0.00242787302 C51.1306145,0.397078681 0.116902197,72.8253609 0.116902197,145.460721 C0.116902197,218.096081 51.2150045,290.295706 153.411209,289.993498 C153.634244,289.992839 153.969345,289.99133 154.416511,289.988971" id="Path-5" transform="translate(77.266707, 144.997221) rotate(-180.000000) translate(-77.266707, -144.997221) "></path>
            <path d="M57.0502888,91.4962243 C56.8436997,91.4964234 56.6889163,91.4967222 56.5859387,91.4971205 C18.9399143,91.6427386 0.116902197,118.367287 0.116902197,145.168243 C0.116902197,171.969199 18.9710524,198.609378 56.6793527,198.497869 C56.7616481,198.497626 56.8852937,198.497069 57.0502888,198.496199" id="Path-5-Copy" transform="translate(28.583596, 144.997221) rotate(-180.000000) translate(-28.583596, -144.997221) "></path>
            <path d="M311.45025,91 C311.243661,91.0001992 311.088878,91.0004979 310.9859,91.0008963 C273.339876,91.1465143 254.516864,117.871063 254.516864,144.672019 C254.516864,171.472975 273.371014,198.113154 311.079314,198.001645 C311.16161,198.001402 311.285255,198.000845 311.45025,197.999975" id="Path-5-Copy-2"></path>
            <path d="M311.45025,1.13686838e-13 C310.890357,0.000539777308 310.470866,0.00134944327 310.191779,0.00242899788 C208.164353,0.397079806 157.150641,72.825362 157.150641,145.460723 C157.150641,218.096082 208.248743,290.295708 310.444947,289.993499 C310.667982,289.99284 311.003084,289.991331 311.45025,289.988972" id="Path-5-Copy"></path>
        </g>
    </g>
</svg>